<svg width="24" height="25" viewBox="0 0 24 25" fill="none" xmlns="http://www.w3.org/2000/svg">
<path d="M9.87381 11.7288C10.3718 11.4783 10.7484 11.1992 11.0064 10.8977C11.4654 10.3547 11.692 9.63464 11.692 8.74206C11.692 7.87349 11.4654 7.13093 11.0124 6.50837C10.2563 5.49428 8.97673 4.97524 7.16758 4.94824H0V19.5789H6.68304C7.43612 19.5789 8.13368 19.5144 8.77871 19.3824C9.42377 19.2489 9.98182 19.0044 10.4544 18.6474C10.8744 18.3368 11.2254 17.9513 11.5044 17.4968C11.9455 16.8097 12.166 16.0311 12.166 15.1641C12.166 14.324 11.9725 13.6085 11.5885 13.0204C11.1999 12.4324 10.6299 12.0018 9.87381 11.7288ZM2.95674 7.48945H6.18501C6.89456 7.48945 7.47962 7.56595 7.93866 7.71747C8.46969 7.93799 8.73521 8.38652 8.73521 9.07058C8.73521 9.68414 8.53269 10.1132 8.13218 10.3547C7.72864 10.5962 7.2051 10.7177 6.56304 10.7177H2.95674V7.48945ZM8.06166 16.7827C7.70464 16.9552 7.2021 17.0407 6.55854 17.0407H2.95674V13.1389H6.60804C7.2441 13.1434 7.73914 13.2274 8.09316 13.3849C8.72321 13.67 9.03675 14.192 9.03675 14.9556C9.03675 15.8556 8.71271 16.4617 8.06166 16.7827Z" fill="#E8E8E8"/>
<path d="M21.693 5.63086H15.3369V7.45201H21.693V5.63086Z" fill="white"/>
<path d="M23.9014 12.818C23.7694 11.9704 23.4784 11.2249 23.0254 10.5813C22.5289 9.85225 21.8988 9.3182 21.1323 8.98068C20.3688 8.64164 19.5091 8.47214 18.5521 8.47364C16.9454 8.47364 15.6403 8.97618 14.6307 9.97376C13.6242 10.9743 13.1201 12.413 13.1201 14.2881C13.1201 16.2878 13.6767 17.7324 14.7957 18.619C15.9103 19.507 17.1975 19.9495 18.6586 19.9495C20.4273 19.9495 21.8028 19.423 22.7854 18.3729C23.4139 17.7099 23.7694 17.0573 23.8474 16.4168H20.9193C20.7498 16.7333 20.5533 16.9808 20.3283 17.1609C19.9203 17.4909 19.3891 17.6559 18.7381 17.6559C18.1185 17.6559 17.5935 17.5194 17.1555 17.2479C16.4324 16.8128 16.0544 16.0508 16.0064 14.9662H23.9974C24.0094 14.0316 23.9794 13.313 23.9014 12.818ZM16.0784 13.0985C16.1834 12.395 16.4384 11.8369 16.8434 11.4244C17.2485 11.0133 17.8215 10.8063 18.5551 10.8048C19.2316 10.8048 19.7973 10.9983 20.2578 11.3869C20.7123 11.7784 20.9688 12.347 21.0213 13.0985H16.0784Z" fill="#E8E8E8"/>
</svg>
