<svg width="24" height="25" viewBox="0 0 24 25" fill="none" xmlns="http://www.w3.org/2000/svg">
<g clip-path="url(#clip0_4_4475)">
<path d="M12.326 0.44873C5.74815 0.44873 2.25 4.66392 2.25 9.26012C2.25 11.3917 3.44104 14.0498 5.34763 14.8929C5.63715 15.0234 5.79465 14.9679 5.85915 14.6994C5.91615 14.4954 6.16667 13.5128 6.28817 13.0493C6.32567 12.9008 6.30617 12.7718 6.18617 12.6323C5.55313 11.9002 5.05061 10.5667 5.05061 9.31562C5.05061 6.10999 7.59923 2.99734 11.9359 2.99734C15.6861 2.99734 18.3097 5.43345 18.3097 8.91811C18.3097 12.8558 16.2261 15.5799 13.5185 15.5799C12.0199 15.5799 10.9039 14.4038 11.2579 12.9488C11.6854 11.2162 12.524 9.35312 12.524 8.10357C12.524 6.98303 11.8909 6.05597 10.5979 6.05597C9.0723 6.05597 7.83474 7.56655 7.83474 9.59464C7.83474 10.8832 8.29076 11.7532 8.29076 11.7532C8.29076 11.7532 6.78169 17.8495 6.50119 18.9881C6.02717 20.9157 6.56569 24.0374 6.61219 24.3059C6.64069 24.4544 6.80719 24.5009 6.90021 24.3794C7.04871 24.1844 8.87278 21.5817 9.38432 19.7007C9.57032 19.0151 10.3339 16.2354 10.3339 16.2354C10.8364 17.143 12.287 17.9035 13.832 17.9035C18.4282 17.9035 21.7494 13.8638 21.7494 8.85061C21.7329 4.0444 17.6197 0.44873 12.326 0.44873Z" fill="#E8E8E8"/>
</g>
<defs>
<clipPath id="clip0_4_4475">
<rect width="24" height="24" fill="white" transform="translate(0 0.44873)"/>
</clipPath>
</defs>
</svg>
